<?xml version="1.0" encoding="UTF-8" standalone="no"?>
<!DOCTYPE svg PUBLIC "-//W3C//DTD SVG 1.1//EN"
 "http://www.w3.org/Graphics/SVG/1.1/DTD/svg11.dtd">
<!-- Generated by graphviz version 2.38.0 (20140413.2041)
 -->
<!-- Title: %3 Pages: 1 -->
<svg width="215pt" height="114pt"
 viewBox="0.00 0.00 215.00 114.33" xmlns="http://www.w3.org/2000/svg" xmlns:xlink="http://www.w3.org/1999/xlink">
<g id="graph0" class="graph" transform="scale(1 1) rotate(0) translate(4 110.326)">
<title>%3</title>
<polygon fill="white" stroke="none" points="-4,4 -4,-110.326 211,-110.326 211,4 -4,4"/>
<!-- Bird Y -->
<g id="node1" class="node"><title>Bird Y</title>
<polygon fill="lightgray" stroke="black" points="41,-106.326 0,-106.326 0,-88.3259 41,-88.3259 41,-106.326"/>
<text text-anchor="middle" x="20.5" y="-95.1259" font-family="Times New Roman,serif" font-size="9.00">Bird Y</text>
</g>
<!-- Top Pipe Y -->
<g id="node2" class="node"><title>Top Pipe Y</title>
<polygon fill="lightgray" stroke="black" points="118,-106.326 59,-106.326 59,-88.3259 118,-88.3259 118,-106.326"/>
<text text-anchor="middle" x="88.5" y="-95.1259" font-family="Times New Roman,serif" font-size="9.00">Top Pipe Y</text>
</g>
<!-- Jump -->
<g id="node4" class="node"><title>Jump</title>
<ellipse fill="lightblue" stroke="black" cx="129.5" cy="-26.163" rx="26.3269" ry="26.3269"/>
<text text-anchor="middle" x="129.5" y="-23.963" font-family="Times New Roman,serif" font-size="9.00">Jump</text>
</g>
<!-- Top Pipe Y&#45;&gt;Jump -->
<g id="edge1" class="edge"><title>Top Pipe Y&#45;&gt;Jump</title>
<path fill="none" stroke="green" stroke-width="0.281843" d="M93.3642,-88.1204C97.8499,-80.5536 104.795,-68.8386 111.402,-57.6929"/>
<polygon fill="green" stroke="green" stroke-width="0.281843" points="114.486,-59.3534 116.575,-48.9664 108.465,-55.7838 114.486,-59.3534"/>
</g>
<!-- Bottom Pipe Y -->
<g id="node3" class="node"><title>Bottom Pipe Y</title>
<polygon fill="lightgray" stroke="black" points="207,-106.326 136,-106.326 136,-88.3259 207,-88.3259 207,-106.326"/>
<text text-anchor="middle" x="171.5" y="-95.1259" font-family="Times New Roman,serif" font-size="9.00">Bottom Pipe Y</text>
</g>
<!-- Bottom Pipe Y&#45;&gt;Jump -->
<g id="edge2" class="edge"><title>Bottom Pipe Y&#45;&gt;Jump</title>
<path fill="none" stroke="red" stroke-width="0.373461" d="M166.517,-88.1204C161.922,-80.5536 154.808,-68.8386 148.04,-57.6929"/>
<polygon fill="red" stroke="red" stroke-width="0.373461" points="150.923,-55.6972 142.74,-48.9664 144.939,-59.3306 150.923,-55.6972"/>
</g>
</g>
</svg>
